<?xml version="1.0" encoding="utf-8"?>
<!-- Generator: Adobe Illustrator 19.0.0, SVG Export Plug-In . SVG Version: 6.00 Build 0)  -->
<svg version="1.1" id="layer" xmlns="http://www.w3.org/2000/svg" xmlns:xlink="http://www.w3.org/1999/xlink" x="0px" y="0px"
	 viewBox="-153 -46 652 652" style="enable-background:new -153 -46 652 652;" xml:space="preserve">
<style type="text/css">
	.st0{fill:#0085C0;}
	.st1{fill:#FFFFFF;}
</style>
<g>
	<polyline class="st0" points="112.5,276.3 132,276.3 149.6,276.3 174.4,353.8 158.6,353.8 153.3,338.9 126.8,338.9 122.4,353.8 
		108.2,353.8 128.4,288.5 112.5,288.5 112.5,276.3 	"/>
	<polyline class="st1" points="139.8,295.2 149.5,326.3 130.7,326.3 139.8,295.2 	"/>
	<polygon class="st0" points="340,341.5 357.8,341.5 357.8,288.5 340,288.5 340,276.3 390.2,276.3 390.2,288.5 372.4,288.5 
		372.4,341.5 390.2,341.5 390.2,353.8 340,353.8 	"/>
	<polygon class="st0" points="406.2,276.3 425.9,313.8 404.2,353.8 422.6,353.8 436.4,325.9 449.9,353.8 469,353.8 446.8,313.8 
		465.4,276.3 449.9,276.3 436.4,301.9 422.6,276.3 	"/>
	<path class="st0" d="M190.6,276h26.6c6,0,10.5,0.4,13.7,1.4c4.2,1.3,7.9,3.8,10.9,7.2c3,3.4,5.3,7.6,6.9,12.6
		c1.6,5,2.3,11.1,2.3,18.4c0,6.4-0.8,12-2.2,16.5c-1.8,5.6-4.3,10.2-7.8,13.7c-2.5,2.7-5.9,4.8-10.2,6.2c-3.2,1.1-7.5,1.7-12.8,1.7
		h-27.3L190.6,276 M205.1,289.1v51.5H216c4.1,0,7-0.2,8.7-0.8c2.3-0.7,4.3-1.7,5.9-3.2s2.8-4,3.8-7.5c1-3.4,1.4-8.2,1.4-14.3
		c0-6-0.6-10.6-1.4-13.8c-1-3.2-2.3-5.8-4.1-7.5c-1.8-1.8-4-3-6.8-3.7c-2-0.6-6-0.8-12-0.8h-6.4"/>
	<path class="st0" d="M268.4,276.3H295c6,0,10.5,0.4,13.7,1.4c4.2,1.3,7.9,3.8,10.9,7.2c3,3.4,5.3,7.6,6.9,12.6
		c1.6,5,2.3,11.1,2.3,18.4c0,6.4-0.8,12-2.2,16.5c-1.8,5.6-4.3,10.2-7.8,13.7c-2.5,2.7-5.9,4.8-10.2,6.2c-3.2,1.1-7.5,1.7-12.8,1.7
		h-27.3L268.4,276.3 M282.9,289.4v51.5h10.9c4.1,0,7-0.2,8.7-0.8c2.3-0.7,4.3-1.7,5.9-3.2c1.6-1.6,2.8-4,3.8-7.5
		c1-3.4,1.4-8.2,1.4-14.3c0-6-0.6-10.6-1.4-13.8c-1-3.2-2.3-5.8-4.1-7.5s-4-3-6.8-3.7c-2-0.6-6-0.8-12-0.8h-6.4"/>
</g>
<rect x="-131" y="195.3" class="st0" width="42.4" height="42.4"/>
<rect x="-29.1" y="195.3" class="st0" width="42.4" height="42.4"/>
<rect x="72.7" y="195.3" class="st0" width="42.4" height="42.4"/>
</svg>
